<?xml version="1.0" encoding="UTF-8"?>
<!DOCTYPE svg PUBLIC "-//W3C//DTD SVG 1.1//EN" "http://www.w3.org/Graphics/SVG/1.1/DTD/svg11.dtd">
<!-- Creator: CorelDRAW -->
<svg xmlns="http://www.w3.org/2000/svg" xml:space="preserve" width="74.131mm" height="63.9141mm" version="1.1" style="shape-rendering:geometricPrecision; text-rendering:geometricPrecision; image-rendering:optimizeQuality; fill-rule:evenodd; clip-rule:evenodd"
viewBox="0 0 9846.28 8489.24"
 xmlns:xlink="http://www.w3.org/1999/xlink"
 xmlns:xodm="http://www.corel.com/coreldraw/odm/2003">
 <defs>
  <style type="text/css">
   <![CDATA[
    .fil1 {fill:#EBB8A6}
    .fil0 {fill:#EBB8A6;fill-rule:nonzero}
   ]]>
  </style>
 </defs>
 <g id="Camada_x0020_1">
  <metadata id="CorelCorpID_0Corel-Layer"/>
  <g id="_2156296465136">
   <path class="fil0" d="M9699.56 2959.75c38.05,27.92 65.81,2.44 146.72,66.92 -57.74,-25.87 -165.11,-12.91 -226.04,22.49 -57.25,33.23 -93.73,92.48 -142.29,137.47 -126.58,117.24 -318.06,125.24 -489.93,110.19 -171.89,-15.05 -351.28,-45.49 -512.34,16.42 78.19,-50.72 166.19,-86.26 257.68,-104.05 54.01,-10.51 119.5,-22.66 138.68,-74.23 8.71,-23.44 4.83,-49.45 0.85,-74.13 -23.99,-148.16 -47.95,-296.33 -71.91,-444.48 -6.11,-37.8 -12.35,-76.03 -27.35,-111.24 -46.21,-108.46 -162.4,-165.38 -262.39,-227.84 -159.69,-99.74 -297.14,-234.88 -399.58,-392.85 211.24,84.36 422.48,168.71 633.71,253.07 152.35,60.83 305.33,121.98 447.17,204.41 40.7,23.66 83.07,52.2 98.98,96.51 32.18,89.64 -60.18,184.58 -39.89,277.64 102.33,-17.16 204.67,-34.33 306.99,-51.5 21.6,-3.64 51.34,-2.18 55.98,19.25 2.98,13.8 -7.64,26.48 -17.48,36.65 -53.79,55.51 -107.57,111.03 -161.37,166.53 45.49,-19.75 116.64,-14.37 162.84,3.65 46.18,18.05 60.98,39.81 100.96,69.13z"/>
   <path class="fil0" d="M6570.47 3849.67c34.03,0 -14.74,33.71 -3.8,3.02 1.18,-3.41 1.1,-3.02 3.8,-3.02z"/>
   <path class="fil0" d="M8938.48 4066.69c48.71,-56.56 87.65,-84 162.3,-83.04 74.55,1.02 147.92,65.84 195.13,123.58 -57.51,-47.75 -137.63,-66.94 -210.52,-50.45 -72.89,16.58 -136.91,68.38 -168.25,136.2 13.8,7.21 27.61,14.36 41.41,21.57 -74.41,91.62 -194.9,143.82 -312.69,135.33 36.88,-16.51 68.62,-44.19 89.87,-78.62 -63.93,-62.27 -170.69,-54.34 -250.09,-13.64 -79.32,40.7 -141.99,107.32 -214.97,158.64 76,-86.85 139.53,-187.36 233.61,-254.22 36.09,-25.7 56.48,-34.59 100.35,-28.32 52.98,7.61 140,65.92 193.06,59.09 47.28,-6.11 109.71,-90.03 140.81,-126.13z"/>
   <path class="fil0" d="M6600.7 3837.77c12.06,-10.79 47.27,-25.3 27.2,-9.35 -0.24,0.08 -40.62,21.17 -27.2,9.35z"/>
   <path class="fil1" d="M4821.7 8115.01c174.4,-1640.16 3740.59,-1694.75 4016.86,-3510.84 5.25,-35.12 -8.9,-72.38 26.23,-67.13 35.12,5.25 35.81,40.67 30.56,75.79 -303.11,1993.54 -4163.98,2091.76 -3849.16,3708.44 24.25,124.68 27.37,187.86 -94.2,162.39 -2138.66,-447.79 -4009.64,-1977.57 -4684.51,-3694.97 -69.11,-176 -125.76,-353.97 -168.7,-532.87 -48.51,-201.47 -79.76,-404.07 -92.46,-606.68 -8.58,-138.81 -8.51,-277.56 0.69,-415.77 10.03,-150.99 31.09,-301.36 63.56,-450.6 49.87,-228.08 126.66,-453.56 232.41,-674.27 74.12,-154.55 162.46,-306.67 265.86,-455.91 79.52,-114.72 167.94,-227.7 265.47,-338.54 299.93,-340.68 686.81,-661.43 1170.41,-952.98 1314.71,-792.57 3315.92,-230.82 4029.87,1201.04 19.62,39.54 27.6,41.67 56.12,38.93 312.53,-29.19 553.15,-40.9 799.39,-17.19 122.86,2.67 228.39,27.83 346.83,62.8 76.25,22.58 160.73,62.88 178.37,140.34 16.64,73.21 -35.36,148.79 -2.98,223.9 0.69,1.59 1.67,3.04 2.43,4.64 8.59,-2.88 17.94,-4.48 27.45,-4.33 19.62,0.31 39.08,7.98 48.65,20.22 4.94,6.39 7,13.84 6,21.15 55.96,-16.58 65,-76.94 125.37,-117.61 44.1,-29.65 65.15,-9.8 82.64,18.25 31.93,51 -0.31,126.89 -37.79,171.21 -34.14,40.22 -85.38,72.52 -141.4,97.92 6.91,-14.45 9.95,-40.36 9.95,-73.52 0,-10.72 -15.35,-13.84 -23.56,-6.92 -91.38,77.7 -209.53,80.74 -331.55,93.89 -44.39,4.86 -132.42,21.29 -132.42,21.29 0,0 -69.8,-60.06 -75.19,-104.31 44.16,8.29 91.08,18.62 135.7,24.48 45.23,6.08 88.26,-13.39 108.94,-54.51 8.29,-16.27 10.33,-35.28 7.45,-53.37 -21.29,-135.78 -84.77,-267.69 -188.46,-358.54 -13.47,-11.7 -27.45,-22.19 -41.75,-31.55 -257.34,-22.43 -457.97,-20.3 -912.45,30.93 -41.06,4.65 -63.94,2.74 -92.07,-31.01 -118.66,-143.16 -443.46,-667.73 -887.44,-937.93 -2023.49,-1231.53 -3888.61,104.08 -4298.99,2026.61 -33.07,154.63 -56.64,313.08 -70.09,474.24 -15.66,186.5 -17.8,376.63 -5.33,568.75 30.56,473.94 149.47,960.65 372.37,1436.42 112.45,239.93 251.34,477.06 418.67,708.32 120.51,166.43 255.68,329.88 406.52,489 643.78,679.36 1568.62,1309.38 2835.43,1721.66 36.95,12.09 54.2,6.55 60.29,-51.24z"/>
   <path class="fil0" d="M8043.81 3381.75c-17.45,-28 -38.56,-47.91 -82.66,-18.24 -60.37,40.68 -69.41,101.05 -125.33,117.63 0.96,-7.29 -1.04,-14.76 -6.03,-21.17 -9.6,-12.22 -29.04,-19.91 -48.63,-20.15 -9.51,-0.16 -18.87,1.42 -27.44,4.28 -0.8,-1.58 -1.75,-3.02 -2.46,-4.6 -32.37,-75.12 19.59,-150.71 3.02,-223.93 -17.69,-77.5 -102.17,-117.8 -178.39,-140.33 -180.94,-53.46 -332.04,-83.92 -560.18,-46.47 142.86,11.9 262.25,25.22 359.8,110.65 103.68,90.82 167.13,222.73 188.48,358.53 2.86,18.09 0.8,37.04 -7.46,53.38 -20.69,41.1 -63.77,60.53 -108.98,54.5 -44.58,-5.87 -91.54,-16.18 -135.72,-24.51 5.39,44.26 75.19,104.31 75.19,104.31 0,0 88.05,-16.42 132.48,-21.26 121.98,-13.16 240.18,-16.18 331.57,-93.91 8.17,-6.91 23.55,-3.81 23.55,6.89 0,33.15 -3.09,59.09 -9.99,73.53 56.08,-25.38 107.32,-57.66 141.43,-97.88 37.44,-44.35 69.72,-120.26 37.76,-171.26z"/>
  </g>
 </g>
</svg>
